<svg id="visual" viewBox="0 0 960 540" width="960" height="540" xmlns="http://www.w3.org/2000/svg" xmlns:xlink="http://www.w3.org/1999/xlink" version="1.1"><rect width="960" height="540" fill="#010101"></rect><g><g transform="translate(801 168)"><path d="M90.4 -29.8C102.7 8.6 88.3 55.2 55.2 80.2C22.1 105.2 -29.7 108.7 -62.4 85.2C-95.1 61.6 -108.6 10.9 -95 -29.2C-81.4 -69.3 -40.7 -98.9 -0.8 -98.6C39 -98.4 78.1 -68.2 90.4 -29.8Z" stroke="#67e7d2" fill="none" stroke-width="20"></path></g><g transform="translate(532 315)"><path d="M78.5 -22.6C89.5 8.1 77.6 49.2 51.2 67.7C24.9 86.3 -15.9 82.2 -40.7 62.6C-65.4 43.1 -74 8.1 -64.6 -20.6C-55.1 -49.2 -27.6 -71.6 3.1 -72.6C33.8 -73.6 67.6 -53.3 78.5 -22.6Z" stroke="#67e7d2" fill="none" stroke-width="20"></path></g><g transform="translate(240 177)"><path d="M78.9 -24.6C90.3 9.3 79.2 51.6 49.5 74.8C19.8 97.9 -28.6 102 -59.3 80.1C-90 58.1 -103 10.2 -90.2 -25.8C-77.4 -61.8 -38.7 -85.8 -2.4 -85.1C33.8 -84.3 67.6 -58.6 78.9 -24.6Z" stroke="#67e7d2" fill="none" stroke-width="20"></path></g></g></svg>