<svg id="visual" viewBox="0 0 960 540" width="960" height="540" xmlns="http://www.w3.org/2000/svg" xmlns:xlink="http://www.w3.org/1999/xlink" version="1.1"><rect x="0" y="0" width="960" height="540" fill="#001220"></rect><path d="M0 137L22.8 138.7C45.7 140.3 91.3 143.7 137 157C182.7 170.3 228.3 193.7 274 197.2C319.7 200.7 365.3 184.3 411.2 174.2C457 164 503 160 548.8 160.8C594.7 161.7 640.3 167.3 686 175.2C731.7 183 777.3 193 823 200C868.7 207 914.3 211 937.2 213L960 215L960 0L937.2 0C914.3 0 868.7 0 823 0C777.3 0 731.7 0 686 0C640.3 0 594.7 0 548.8 0C503 0 457 0 411.2 0C365.3 0 319.7 0 274 0C228.3 0 182.7 0 137 0C91.3 0 45.7 0 22.8 0L0 0Z" fill="#1e906f"></path><path d="M0 148L22.8 142.7C45.7 137.3 91.3 126.7 137 121.5C182.7 116.3 228.3 116.7 274 124.5C319.7 132.3 365.3 147.7 411.2 146C457 144.3 503 125.7 548.8 128.5C594.7 131.3 640.3 155.7 686 162.3C731.7 169 777.3 158 823 152.7C868.7 147.3 914.3 147.7 937.2 147.8L960 148L960 0L937.2 0C914.3 0 868.7 0 823 0C777.3 0 731.7 0 686 0C640.3 0 594.7 0 548.8 0C503 0 457 0 411.2 0C365.3 0 319.7 0 274 0C228.3 0 182.7 0 137 0C91.3 0 45.7 0 22.8 0L0 0Z" fill="#24a182"></path><path d="M0 108L22.8 111C45.7 114 91.3 120 137 115.5C182.7 111 228.3 96 274 93.7C319.7 91.3 365.3 101.7 411.2 104.5C457 107.3 503 102.7 548.8 101.8C594.7 101 640.3 104 686 107.8C731.7 111.7 777.3 116.3 823 121.3C868.7 126.3 914.3 131.7 937.2 134.3L960 137L960 0L937.2 0C914.3 0 868.7 0 823 0C777.3 0 731.7 0 686 0C640.3 0 594.7 0 548.8 0C503 0 457 0 411.2 0C365.3 0 319.7 0 274 0C228.3 0 182.7 0 137 0C91.3 0 45.7 0 22.8 0L0 0Z" fill="#2ab395"></path><path d="M0 89L22.8 86.8C45.7 84.7 91.3 80.3 137 74.8C182.7 69.3 228.3 62.7 274 61.3C319.7 60 365.3 64 411.2 64.7C457 65.3 503 62.7 548.8 64C594.7 65.3 640.3 70.7 686 77C731.7 83.3 777.3 90.7 823 87.2C868.7 83.7 914.3 69.3 937.2 62.2L960 55L960 0L937.2 0C914.3 0 868.7 0 823 0C777.3 0 731.7 0 686 0C640.3 0 594.7 0 548.8 0C503 0 457 0 411.2 0C365.3 0 319.7 0 274 0C228.3 0 182.7 0 137 0C91.3 0 45.7 0 22.8 0L0 0Z" fill="#30c5aa"></path><path d="M0 65L22.8 58.5C45.7 52 91.3 39 137 32.7C182.7 26.3 228.3 26.7 274 28.8C319.7 31 365.3 35 411.2 34.8C457 34.7 503 30.3 548.8 32.8C594.7 35.3 640.3 44.7 686 46.7C731.7 48.7 777.3 43.3 823 44C868.7 44.7 914.3 51.3 937.2 54.7L960 58L960 0L937.2 0C914.3 0 868.7 0 823 0C777.3 0 731.7 0 686 0C640.3 0 594.7 0 548.8 0C503 0 457 0 411.2 0C365.3 0 319.7 0 274 0C228.3 0 182.7 0 137 0C91.3 0 45.7 0 22.8 0L0 0Z" fill="#35d8bf"></path></svg>